<?xml version="1.0" encoding="utf-8"?>
<!-- Generator: Adobe Illustrator 27.3.1, SVG Export Plug-In . SVG Version: 6.00 Build 0)  -->
<svg version="1.0" id="Ebene_1" xmlns="http://www.w3.org/2000/svg" xmlns:xlink="http://www.w3.org/1999/xlink" x="0px" y="0px"
	 viewBox="0 0 327 277.4" style="enable-background:new 0 0 327 277.4;" xml:space="preserve">
<style type="text/css">
	.st0{fill:url(#SVGID_1_);}
</style>
<linearGradient id="SVGID_1_" gradientUnits="userSpaceOnUse" x1="165.4051" y1="234.7661" x2="165.4051" y2="485.0274" gradientTransform="matrix(1 0 0 -1 0 498)">
	<stop  offset="0" style="stop-color:#009399"/>
	<stop  offset="1" style="stop-color:#54C7C8"/>
</linearGradient>
<path class="st0" d="M123.8,262.7c36.9,4.7,43-21.7,52-76.6c20.7-114.2,94.8-154.8,134-168.4c2.8-1,1.8-5.1-1.1-4.7
	C267.3,19,184.5,43.8,123,144.9C94.1,192.2,89.4,258.4,123.8,262.7z M86.2,185.7c3.6,22,7.2,40.8,8.3,46.3
	c-1.1-7.6-4.3-40.5,20.6-86.7c3-5.5,6.3-10.4,9.5-15.1c1.9-2.7,1.7-6.3-0.4-8.8C95.3,87,45.3,67.3,21.5,59.4c-1.8-0.6-3,1.8-1.4,2.9
	C38.5,75.1,73.2,108.9,86.2,185.7z M130.3,95.4c15.2,1.1,28.5-10.5,29.3-25.7c1.1-15.2-10.5-28.5-25.7-29.6s-28.5,10.5-29.6,25.7
	C103.5,81,115.1,94.3,130.3,95.4z"/>
</svg>
