<?xml version="1.0" encoding="utf-8"?>
<!-- Generator: Adobe Illustrator 27.3.1, SVG Export Plug-In . SVG Version: 6.00 Build 0)  -->
<svg version="1.0" id="Ebene_1" xmlns="http://www.w3.org/2000/svg" xmlns:xlink="http://www.w3.org/1999/xlink" x="0px" y="0px"
	 viewBox="0 0 1000 534.4" style="enable-background:new 0 0 1000 534.4;" xml:space="preserve">
<style type="text/css">
	.st0{fill:url(#SVGID_1_);}
	.st1{fill:#232529;}
</style>
<linearGradient id="SVGID_1_" gradientUnits="userSpaceOnUse" x1="524.4052" y1="282.2339" x2="524.4052" y2="31.9726">
	<stop  offset="0" style="stop-color:#009399"/>
	<stop  offset="1" style="stop-color:#54C7C8"/>
</linearGradient>
<path class="st0" d="M482.8,281.7c36.9,4.7,43-21.7,52-76.6c20.7-114.2,94.8-154.8,134-168.4c2.8-1,1.8-5.1-1.1-4.7
	C626.3,38,543.5,62.8,482,163.9C453.1,211.2,448.4,277.4,482.8,281.7z M445.2,204.7c3.6,22,7.2,40.8,8.3,46.3
	c-1.1-7.6-4.3-40.5,20.6-86.7c3-5.5,6.3-10.4,9.5-15.1c1.9-2.7,1.7-6.3-0.4-8.8c-28.9-34.4-78.9-54.1-102.7-62
	c-1.8-0.6-3,1.8-1.4,2.9C397.5,94.1,432.2,127.9,445.2,204.7z M489.3,114.4c15.2,1.1,28.5-10.5,29.3-25.7
	c1.1-15.2-10.5-28.5-25.7-29.6s-28.5,10.5-29.6,25.7C462.5,100,474.1,113.3,489.3,114.4z"/>
<g>
	<path class="st1" d="M32.8,358.9v-22.8h15.5v22.8H32.8z M32.8,502.8v-119h15.5v119H32.8z"/>
	<path class="st1" d="M182.7,502.8h-15.5v-66.5c0-14.2-2.1-24.4-6.3-30.8s-10.6-9.6-19.3-9.6c-4.6,0-9.1,0.8-13.7,2.5
		c-4.6,1.7-8.8,4-12.7,7.1c-3.9,3-7.3,6.7-10.4,10.8c-3,4.2-5.3,8.7-6.6,13.6v72.9H82.6v-119h14.2v27c4.9-8.7,11.8-15.7,20.9-21
		s18.9-8,29.6-8c6.5,0,12.1,1.2,16.7,3.7c4.6,2.4,8.2,5.9,11,10.3c2.7,4.4,4.7,9.8,5.9,16.2c1.2,6.4,1.8,13.5,1.8,21.2V502.8z"/>
	<path class="st1" d="M271.8,497.1c-0.9,0.5-2.2,1.1-4,1.8c-1.8,0.8-3.8,1.5-6.1,2.3c-2.3,0.8-4.9,1.4-7.8,2.1
		c-2.9,0.6-5.9,0.9-9.1,0.9c-3.4,0-6.5-0.5-9.6-1.4c-3-0.9-5.7-2.3-8-4.2c-2.3-1.9-4.1-4.3-5.5-7.2c-1.4-2.9-2.1-6.2-2.1-10v-85.2
		h-16.4v-12.3h16.4v-40.2h15.5v40.2h27.4v12.3h-27.4V477c0.3,4.4,1.9,7.7,4.7,9.7c2.8,2.1,6.1,3.1,9.7,3.1c4.4,0,8.3-0.7,11.6-2.2
		c3.3-1.4,5.5-2.5,6.4-3.1L271.8,497.1z"/>
	<path class="st1" d="M328.4,505.1c-12.9,0-22.6-4.3-28.9-12.9s-9.5-21.4-9.5-38.5v-69.9h15.5V451c0,27,9.2,40.4,27.6,40.4
		c4.6,0,9.1-0.8,13.5-2.3s8.5-3.7,12.2-6.6s7.1-6.3,10.1-10.3s5.4-8.5,7.2-13.5v-74.9h15.5v98.9c0,4.3,1.8,6.4,5.5,6.4v13.7
		c-1.8,0.3-3.3,0.5-4.5,0.5s-1.9,0-2.4,0c-3.7-0.2-6.6-1.4-8.9-3.9c-2.3-2.4-3.4-5.7-3.4-9.8v-13.7c-5.2,9.3-12.2,16.5-21.1,21.6
		C347.9,502.5,338.5,505.1,328.4,505.1z"/>
	<path class="st1" d="M609.6,502.8H579v-67.2c0-9.6-1.6-16.6-4.9-21c-3.3-4.4-7.8-6.6-13.6-6.6c-6.1,0-11.8,2.3-17.1,7
		c-5.3,4.6-9.1,10.7-11.4,18.2v69.7h-30.6v-67.2c0-9.6-1.6-16.6-4.9-21s-7.8-6.6-13.6-6.6c-5.9,0-11.6,2.3-17,6.9s-9.3,10.6-11.5,18
		v69.9h-30.6V383.1h27.6v22.2c4.4-7.8,10.5-13.7,18.2-17.9c7.7-4.2,16.5-6.3,26.4-6.3c10.1,0,17.8,2.4,23.3,7.3s9,10.9,10.5,18
		c4.9-8.2,11-14.5,18.5-18.8s16-6.5,25.6-6.5c7.3,0,13.3,1.4,18,4.1s8.4,6.3,11,10.7c2.6,4.4,4.4,9.4,5.4,15.1
		c1,5.6,1.5,11.3,1.5,17.1v74.7H609.6z"/>
	<path class="st1" d="M636.3,366.4V336h30.6v30.4H636.3z M636.3,502.8V383.1h30.6v119.7H636.3z"/>
	<path class="st1" d="M805.8,502.8h-30.6v-67.2c0-9.6-1.7-16.6-5-21c-3.4-4.4-8-6.6-13.9-6.6c-3,0-6.2,0.6-9.4,1.8
		c-3.2,1.2-6.2,2.9-9,5.1s-5.4,4.8-7.7,7.9c-2.3,3-4,6.4-5,10.1v69.9h-30.6V383.1h27.6v22.2c4.4-7.6,10.8-13.6,19.2-17.8
		c8.4-4.3,17.8-6.4,28.3-6.4c7.5,0,13.6,1.4,18.3,4.1s8.4,6.3,11,10.7c2.6,4.4,4.4,9.4,5.4,15.1c1,5.6,1.5,11.3,1.5,17.1
		L805.8,502.8L805.8,502.8z"/>
	<path class="st1" d="M882.1,505.1c-8.2,0-15.8-1.6-22.8-4.8c-7-3.2-13-7.6-18-13.2s-8.9-12.2-11.8-19.8c-2.8-7.5-4.2-15.6-4.2-24.3
		c0-8.7,1.3-16.7,4-24.2s6.4-14,11.1-19.6c4.7-5.6,10.4-10.1,16.9-13.2c6.5-3.2,13.7-4.8,21.5-4.8c8.8,0,16.8,2.1,23.9,6.4
		c7.1,4.3,12.6,9.8,16.6,16.7v-68.1h30.6v131.6c0,3.2,0.5,5.5,1.6,6.9s2.9,2.1,5.5,2.3v26c-5.3,1.1-9.7,1.6-13,1.6
		c-5.5,0-10-1.4-13.5-4.1s-5.5-6.3-5.9-10.7l-0.7-7.5c-4.4,7.6-10.4,13.4-17.9,17.2C898.2,503.1,890.3,505.1,882.1,505.1z
		 M890.1,479c2.9,0,5.9-0.5,8.9-1.5s5.9-2.4,8.5-4.2c2.6-1.8,4.9-4,7-6.4s3.6-5.1,4.7-8v-28.6c-1.2-3.3-2.9-6.4-5.1-9.3
		c-2.2-2.8-4.7-5.3-7.5-7.3c-2.8-2.1-5.8-3.7-8.9-4.9c-3.1-1.2-6.2-1.8-9.2-1.8c-4.6,0-8.8,1-12.7,3s-7.2,4.7-9.9,8.1
		s-4.9,7.3-6.4,11.8c-1.5,4.4-2.3,9-2.3,13.7c0,5,0.8,9.7,2.5,13.9c1.7,4.3,4,8,6.9,11.2s6.4,5.7,10.4,7.5
		C880.7,478.1,885.2,479,890.1,479z"/>
</g>
</svg>
