<?xml version="1.0" encoding="utf-8"?>
<!-- Generator: Adobe Illustrator 27.3.1, SVG Export Plug-In . SVG Version: 6.00 Build 0)  -->
<svg version="1.0" id="Ebene_1" xmlns="http://www.w3.org/2000/svg" xmlns:xlink="http://www.w3.org/1999/xlink" x="0px" y="0px"
	 viewBox="0 0 1000 235.7" style="enable-background:new 0 0 1000 235.7;" xml:space="preserve">
<style type="text/css">
	.st0{fill:url(#SVGID_1_);}
	.st1{fill:#232529;}
</style>
<linearGradient id="SVGID_1_" gradientUnits="userSpaceOnUse" x1="145.6971" y1="212.6058" x2="145.6971" y2="18.9802">
	<stop  offset="0" style="stop-color:#009399"/>
	<stop  offset="1" style="stop-color:#54C7C8"/>
</linearGradient>
<path class="st0" d="M113.5,212.2c28.5,3.6,33.3-16.8,40.3-59.3c16-88.4,73.4-119.8,103.7-130.3c2.1-0.7,1.4-3.9-0.9-3.6
	c-32,4.6-96,23.8-143.6,102.1C90.5,157.7,86.9,208.9,113.5,212.2z M84.4,152.7c2.8,17.1,5.6,31.6,6.4,35.8
	c-0.8-5.9-3.4-31.3,15.9-67.1c2.3-4.3,4.8-8,7.4-11.7c1.4-2.1,1.3-4.9-0.3-6.8c-22.4-26.6-61-41.9-79.5-48c-1.4-0.5-2.3,1.4-1.1,2.2
	C47.5,67.1,74.3,93.2,84.4,152.7z M118.5,82.8c11.7,0.8,22.1-8.1,22.6-19.9C142,51.2,133,40.8,121.3,40s-22.1,8.1-22.9,19.9
	C97.8,71.6,106.8,81.9,118.5,82.8z"/>
<g>
	<path class="st1" d="M252.7,100.9V83.2h12v17.7C264.7,100.9,252.7,100.9,252.7,100.9z M252.7,212.2v-92.1h12v92.1H252.7z"/>
	<path class="st1" d="M368.6,212.2h-12v-51.4c0-11-1.6-18.9-4.9-23.9c-3.2-4.9-8.2-7.4-14.9-7.4c-3.5,0-7.1,0.6-10.6,1.9
		c-3.5,1.3-6.8,3.1-9.8,5.5s-5.7,5.2-8,8.4c-2.4,3.2-4.1,6.7-5.1,10.5v56.4h-12v-92.1h11V141c3.8-6.7,9.2-12.1,16.2-16.3
		c7-4.1,14.6-6.2,22.9-6.2c5.1,0,9.4,0.9,12.9,2.8s6.4,4.5,8.5,8c2.1,3.4,3.7,7.6,4.6,12.5s1.4,10.4,1.4,16.4v54H368.6z"/>
	<path class="st1" d="M437.5,207.8c-0.7,0.4-1.7,0.8-3.1,1.4c-1.4,0.6-2.9,1.2-4.7,1.8c-1.8,0.6-3.8,1.1-6,1.6s-4.6,0.7-7.1,0.7
		c-2.6,0-5.1-0.4-7.4-1.1c-2.4-0.7-4.4-1.8-6.2-3.3c-1.8-1.5-3.2-3.3-4.2-5.6c-1.1-2.2-1.6-4.8-1.6-7.8v-65.9h-12.7v-9.5h12.7V89h12
		v31.1h21.2v9.5h-21.2v62.6c0.2,3.4,1.4,5.9,3.6,7.5s4.7,2.4,7.5,2.4c3.4,0,6.4-0.6,9-1.7c2.6-1.1,4.2-1.9,4.9-2.4L437.5,207.8z"/>
	<path class="st1" d="M481.4,214c-10,0-17.5-3.3-22.4-10s-7.3-16.6-7.3-29.8v-54.1h12v52c0,20.9,7.1,31.3,21.4,31.3
		c3.5,0,7-0.6,10.4-1.8s6.6-2.9,9.5-5.1c2.9-2.2,5.5-4.9,7.8-8s4.2-6.5,5.6-10.4v-58h12v76.5c0,3.3,1.4,4.9,4.2,4.9v10.6
		c-1.4,0.2-2.6,0.4-3.4,0.4c-0.9,0-1.5,0-1.9,0c-2.8-0.1-5.1-1.1-6.9-3c-1.8-1.9-2.7-4.4-2.7-7.6v-10.6c-4,7.2-9.5,12.8-16.4,16.7
		C496.5,212,489.2,214,481.4,214z"/>
	<path class="st1" d="M699,212.2h-23.7v-52c0-7.4-1.3-12.8-3.8-16.3c-2.5-3.4-6-5.1-10.5-5.1c-4.7,0-9.1,1.8-13.3,5.4
		c-4.1,3.6-7.1,8.3-8.8,14.1v53.9h-23.7v-52c0-7.4-1.3-12.8-3.8-16.3c-2.5-3.4-6-5.1-10.5-5.1c-4.6,0-9,1.8-13.2,5.3
		s-7.2,8.2-8.9,14v54.1h-23.7v-92.6h21.4v17.1c3.4-6,8.1-10.6,14.1-13.9c5.9-3.2,12.8-4.9,20.4-4.9c7.8,0,13.8,1.9,18,5.7
		c4.2,3.8,7,8.4,8.1,14c3.8-6.4,8.5-11.2,14.3-14.6s12.4-5,19.8-5c5.7,0,10.3,1.1,14,3.2s6.5,4.9,8.5,8.3s3.4,7.3,4.2,11.7
		s1.1,8.8,1.1,13.3L699,212.2L699,212.2z"/>
	<path class="st1" d="M719.6,106.7V83.2h23.7v23.5H719.6z M719.6,212.2v-92.6h23.7v92.6H719.6z"/>
	<path class="st1" d="M850.8,212.2h-23.7v-52c0-7.4-1.3-12.8-3.9-16.3c-2.6-3.4-6.2-5.1-10.8-5.1c-2.4,0-4.8,0.5-7.2,1.4
		c-2.5,0.9-4.8,2.3-7,4s-4.2,3.7-5.9,6.1c-1.8,2.4-3.1,4.9-3.9,7.8v54.1h-23.7v-92.6h21.4v17.1c3.4-5.9,8.4-10.5,14.8-13.8
		c6.5-3.3,13.8-4.9,21.9-4.9c5.8,0,10.5,1.1,14.1,3.2c3.7,2.1,6.5,4.9,8.5,8.3s3.4,7.3,4.2,11.7s1.1,8.8,1.1,13.3v57.7H850.8z"/>
	<path class="st1" d="M909.8,214c-6.4,0-12.3-1.2-17.7-3.7s-10.1-5.9-14-10.3c-3.9-4.4-6.9-9.5-9.1-15.3c-2.2-5.8-3.3-12.1-3.3-18.8
		s1-13,3.1-18.7c2.1-5.8,4.9-10.8,8.6-15.2c3.7-4.4,8-7.8,13.1-10.3s10.6-3.7,16.6-3.7c6.8,0,13,1.7,18.5,4.9
		c5.5,3.3,9.7,7.6,12.8,12.9V83.2h23.7V185c0,2.5,0.4,4.2,1.2,5.3s2.2,1.7,4.2,1.8v20.1c-4.1,0.8-7.5,1.2-10.1,1.2
		c-4.2,0-7.7-1.1-10.4-3.2c-2.7-2.1-4.2-4.9-4.6-8.3l-0.5-5.8c-3.4,5.9-8,10.3-13.9,13.3C922.3,212.5,916.2,214,909.8,214z
		 M916,193.8c2.2,0,4.5-0.4,6.9-1.1c2.4-0.8,4.5-1.9,6.5-3.3c2-1.4,3.8-3.1,5.4-4.9c1.6-1.9,2.8-3.9,3.6-6.2v-22.1
		c-0.9-2.6-2.3-5-4-7.2s-3.7-4.1-5.8-5.7c-2.2-1.6-4.5-2.9-6.9-3.8c-2.4-0.9-4.8-1.4-7.2-1.4c-3.5,0-6.8,0.8-9.8,2.3
		s-5.6,3.6-7.7,6.3c-2.1,2.7-3.8,5.7-4.9,9.1c-1.2,3.4-1.8,7-1.8,10.6c0,3.9,0.6,7.5,1.9,10.8c1.3,3.3,3.1,6.2,5.3,8.7
		s4.9,4.4,8,5.8C908.8,193.1,912.2,193.8,916,193.8z"/>
</g>
</svg>
