<?xml version="1.0" encoding="utf-8"?>
<!-- Generator: Adobe Illustrator 27.2.0, SVG Export Plug-In . SVG Version: 6.00 Build 0)  -->
<svg version="1.1" id="Ebene_1" xmlns="http://www.w3.org/2000/svg" xmlns:xlink="http://www.w3.org/1999/xlink" x="0px" y="0px"
	 viewBox="0 0 500 500" style="enable-background:new 0 0 500 500;" xml:space="preserve">
<g>
	<g>
		<path d="M239.2,407.8c48.7,6.2,56.9-28.7,68.8-101.3c27.4-151.1,125.4-204.7,177.1-222.7c3.7-1.3,2.3-6.7-1.5-6.2
			C429,85.5,319.6,118.4,238.3,252C200,314.6,193.8,402.1,239.2,407.8z"/>
		<path d="M189.5,306c4.8,29.1,9.6,54,11,61.2c-1.4-10-5.7-53.5,27.2-114.7c4-7.3,8.3-13.7,12.6-19.9c2.5-3.6,2.3-8.3-0.5-11.7
			c-38.2-45.5-104.3-71.6-135.8-82c-2.3-0.8-3.9,2.4-1.9,3.8C126.5,159.7,172.4,204.4,189.5,306z"/>
		<path d="M247.8,186.6c20.1,1.4,37.7-13.9,38.7-33.9c1.4-20.1-13.9-37.7-33.9-39.2c-20.1-1.4-37.7,13.9-39.2,33.9
			C212.5,167.5,227.8,185.2,247.8,186.6z"/>
	</g>
</g>
</svg>
